<?xml version="1.0" encoding="iso-8859-1"?>
<!-- Uploaded to: SVG Repo, www.svgrepo.com, Generator: SVG Repo Mixer Tools -->
<svg fill="#000000" height="800px" width="800px" version="1.1" id="Layer_1" xmlns="http://www.w3.org/2000/svg" xmlns:xlink="http://www.w3.org/1999/xlink" 
	 viewBox="0 0 496 496" xml:space="preserve">
<g>
	<g>
		<path d="M368,272c-0.145,0-0.286,0.014-0.431,0.016c-19.278-28.826-47.737-49.419-81.01-58.629
			c-1.35-4.9-3.604-9.429-6.582-13.387H344v-16h-18.802L421.192,0h-138.04l-35.153,67.371L212.848,0H74.808l95.994,184H152v16
			h64.022c-2.976,3.956-5.229,8.482-6.579,13.379c-33.27,9.211-61.738,29.813-81.017,58.637C128.283,272.014,128.143,272,128,272
			c-22.056,0-40,17.944-40,40c0,13.174,6.405,24.878,16.261,32.17c-0.177,2.838-0.261,5.396-0.261,7.83
			c0,33.814,11.963,66.429,33.756,92.396C136.62,448.077,136,451.973,136,456c0,22.056,17.944,40,40,40
			c9.127,0,17.544-3.079,24.283-8.244C215.762,493.226,231.787,496,248,496c16.211,0,32.235-2.774,47.719-8.243
			C302.457,492.921,310.874,496,320,496c22.056,0,40-17.944,40-40c0-4.027-0.62-7.923-1.756-11.604
			C380.037,418.429,392,385.814,392,352c0-2.434-0.085-4.992-0.261-7.83C401.595,336.878,408,325.174,408,312
			C408,289.944,390.056,272,368,272z M350.739,275.888c-8.497,4.051-15.376,11.039-19.259,19.888l-38.112-6.928l-17.904-35.816
			c6.414-6.04,10.633-13.991,12.026-22.676C312.872,238.55,334.821,254.351,350.739,275.888z M319.672,160h-23.344l-8.348-16h40.04
			L319.672,160z M311.324,176L308,182.37l-3.324-6.37H311.324z M369.763,64H267.808l8.347-16h101.957L369.763,64z M394.808,16
			l-8.348,16H284.501l8.347-16H394.808z M259.461,80h101.953l-8.348,16H336v16h8.718l-8.348,16h-56.737l-8.348-16H320V96h-57.064
			l-5.911-11.33L259.461,80z M101.192,16h101.96l87.65,168H188.85L101.192,16z M208.509,230.35
			c1.392,8.687,5.612,16.64,12.027,22.682l-17.904,35.816l-38.112,6.928c-3.883-8.85-10.763-15.837-19.259-19.888
			C161.179,254.352,183.128,238.549,208.509,230.35z M120,352c0-0.268,0.01-0.535,0.012-0.803c2.582,0.525,5.253,0.803,7.988,0.803
			c5.888,0,11.632-1.296,16.904-3.784l30.48,30.48l-6.84,38.064c-8.758,1.679-16.53,6.254-22.284,12.662
			C129.262,407.157,120,380.044,120,352z M211.417,474.56C214.338,469.009,216,462.696,216,456c0-2.208-0.2-4.448-0.616-6.696
			L248,432.952l32.616,16.352C280.2,451.552,280,453.792,280,456c0,6.697,1.663,13.011,4.584,18.562
			C260.638,481.746,235.363,481.745,211.417,474.56z M376,352c0,28.044-9.263,55.158-26.261,77.424
			c-5.755-6.407-13.529-10.981-22.291-12.656l-6.84-38.064l30.48-30.48c5.28,2.48,11.024,3.776,16.912,3.776
			c2.735,0,5.406-0.277,7.988-0.803C375.99,351.465,376,351.732,376,352z M368,336c-4.88,0-9.608-1.496-13.656-4.328l-5.496-3.832
			L303.4,373.296l10.528,58.632l6.552,0.136C333.448,432.32,344,443.056,344,456c0,13.232-10.768,24-24,24s-24-10.768-24-24
			c0-2.648,0.504-5.32,1.552-8.184L300,441.12l-52-26.072l-52,26.072l2.448,6.704C199.496,450.68,200,453.352,200,456
			c0,13.232-10.768,24-24,24s-24-10.768-24-24c0-12.944,10.552-23.68,23.536-23.928l6.552-0.136l10.528-58.632l-45.448-45.456
			l-5.496,3.832C137.608,334.504,132.88,336,128,336c-13.232,0-24-10.768-24-24s10.768-24,24-24c11.24,0,20.832,7.672,23.344,18.664
			l1.696,7.464l60.328-10.968l27.584-55.168l-5.992-3.896C228.104,239.632,224,232.12,224,224c0-13.232,10.768-24,24-24
			s24,10.768,24,24c0,8.12-4.104,15.632-10.96,20.096l-5.992,3.896l27.584,55.168l60.328,10.968l1.696-7.464
			C347.168,295.672,356.76,288,368,288c13.232,0,24,10.768,24,24S381.232,336,368,336z"/>
	</g>
</g>
</svg>